<svg width="212.301" height="94.501" viewBox="0 0 212.301 94.501" xmlns="http://www.w3.org/2000/svg"><g id="svgGroup" stroke-linecap="round" fill-rule="evenodd" font-size="9pt" stroke="#000" stroke-width="0.25mm" fill="#fb76a0" style="stroke:#000;stroke-width:0.25mm;fill:#fb76a0"><path d="M 80.601 11 Q 83.701 11.6 85.251 13.1 A 5.288 5.288 0 0 1 86.324 14.535 A 4.56 4.56 0 0 1 86.801 16.6 A 9.273 9.273 0 0 1 86.64 18.39 Q 86.442 19.397 85.999 20.166 A 4.402 4.402 0 0 1 84.951 21.4 A 4.933 4.933 0 0 1 83.385 22.232 Q 81.695 22.795 79.101 22.6 Q 72.21 22.064 67.635 21.792 A 261.493 261.493 0 0 0 65.051 21.65 Q 60.534 21.427 53.496 21.323 A 671.4 671.4 0 0 0 51.801 21.3 Q 48.101 39.7 45.001 58.3 Q 43.901 65.1 42.701 74.05 Q 41.628 82.056 41.194 87.302 A 122.559 122.559 0 0 0 41.101 88.5 A 6.511 6.511 0 0 1 40.624 90.597 A 5.419 5.419 0 0 1 38.701 92.95 A 8.433 8.433 0 0 1 34.996 94.389 A 11.101 11.101 0 0 1 33.401 94.5 Q 30.101 94.5 28.301 92.9 A 5.269 5.269 0 0 1 26.512 89.1 A 7.187 7.187 0 0 1 26.501 88.7 Q 26.501 86.891 26.927 83.291 A 156.38 156.38 0 0 1 27.251 80.75 Q 28.001 75.2 29.001 69.1 A 316.042 316.042 0 0 0 29.756 64.75 Q 30.041 63.031 30.277 61.469 A 171.143 171.143 0 0 0 30.701 58.5 Q 31.801 50.9 33.201 43.4 Q 34.601 35.9 36.001 29.2 Q 36.301 27.7 36.701 25.75 Q 37.101 23.8 37.601 21.4 A 138.602 138.602 0 0 0 31.886 21.685 Q 26.666 22.062 23.035 22.817 A 36.936 36.936 0 0 0 22.201 23 A 30.163 30.163 0 0 0 19.308 23.815 Q 16.393 24.807 14.736 26.206 A 7.794 7.794 0 0 0 14.251 26.65 A 7.93 7.93 0 0 0 11.953 31.632 A 10.773 10.773 0 0 0 11.901 32.7 A 11.586 11.586 0 0 0 13.432 38.421 A 14.176 14.176 0 0 0 13.901 39.2 Q 14.301 39.9 14.301 40.7 A 3.407 3.407 0 0 1 13.705 42.59 Q 13.358 43.12 12.809 43.628 A 8.6 8.6 0 0 1 12.051 44.25 A 9.129 9.129 0 0 1 10.054 45.378 A 7.073 7.073 0 0 1 7.401 45.9 A 4.734 4.734 0 0 1 6.085 45.726 A 3.7 3.7 0 0 1 4.601 44.9 Q 2.789 43.36 1.551 40.628 A 18.514 18.514 0 0 1 1.301 40.05 A 16.991 16.991 0 0 1 0.184 35.781 A 21.937 21.937 0 0 1 0.001 32.9 A 21.081 21.081 0 0 1 0.882 26.659 A 16.64 16.64 0 0 1 5.551 19.25 Q 11.101 14.1 22.451 11.7 Q 33.801 9.3 51.601 9.3 Q 60.99 9.3 67.137 9.592 A 148.328 148.328 0 0 1 69.151 9.7 A 121.637 121.637 0 0 1 74.566 10.146 Q 77.025 10.407 79.19 10.757 A 67.021 67.021 0 0 1 80.601 11 Z M 165.65 72.492 A 2.225 2.225 0 0 0 163.901 71.7 A 3.137 3.137 0 0 0 162.041 72.318 A 4.764 4.764 0 0 0 161.201 73.1 Q 156.501 78.7 153.701 81.1 Q 152.323 82.281 150.969 82.881 A 6.792 6.792 0 0 1 148.201 83.5 Q 146.101 83.5 144.751 81 A 8.713 8.713 0 0 1 144.243 79.851 Q 143.32 77.325 143.001 72.7 A 221.206 221.206 0 0 0 149.381 60.963 A 180.382 180.382 0 0 0 157.701 41.9 A 117.974 117.974 0 0 0 159.878 35.409 Q 161.464 30.156 162.293 25.427 A 56.471 56.471 0 0 0 163.201 15.7 Q 163.201 10.763 162.088 7.388 A 12.507 12.507 0 0 0 160.351 3.9 A 12.179 12.179 0 0 0 159.509 2.867 A 8.247 8.247 0 0 0 153.201 0 A 10.253 10.253 0 0 0 149.815 0.564 Q 145.173 2.175 141.652 8.393 A 41.239 41.239 0 0 0 139.151 13.75 A 87.772 87.772 0 0 0 137.677 17.843 Q 135.573 24.159 134.118 31.537 A 160.294 160.294 0 0 0 131.901 46.9 Q 124.501 47.7 118.551 52.05 Q 112.601 56.4 109.201 63.25 Q 105.801 70.1 105.801 78.1 A 22.532 22.532 0 0 0 106.247 82.695 A 15.744 15.744 0 0 0 109.751 89.95 Q 113.701 94.5 119.801 94.5 A 17.536 17.536 0 0 0 122.323 94.324 A 13.563 13.563 0 0 0 127.151 92.7 Q 130.301 90.9 134.501 85.6 Q 135.642 88.138 137.075 89.952 A 11.054 11.054 0 0 0 146.101 94.5 Q 150.901 94.5 155.801 90.95 A 44.897 44.897 0 0 0 157.163 89.923 A 48.936 48.936 0 0 0 164.801 82.4 A 6.749 6.749 0 0 0 165.704 81.051 Q 166.701 79.098 166.701 76.2 Q 166.701 74.97 166.444 74.048 A 4.376 4.376 0 0 0 165.951 72.9 A 3.165 3.165 0 0 0 165.65 72.492 Z M 114.66 64.086 A 2.055 2.055 0 0 0 113.001 63.3 A 4.008 4.008 0 0 0 112.734 63.309 Q 112.229 63.343 111.601 63.5 A 89.607 89.607 0 0 1 108.594 64.234 Q 103.977 65.272 100.401 65.5 A 27.657 27.657 0 0 0 100.054 63.139 A 21.86 21.86 0 0 0 94.951 52.55 A 14.981 14.981 0 0 0 88.539 48.217 A 17.814 17.814 0 0 0 82.701 47.3 Q 76.501 47.3 71.401 50.65 A 21.614 21.614 0 0 0 67.752 53.664 A 24.072 24.072 0 0 0 63.401 59.95 A 27.572 27.572 0 0 0 61.307 65.943 A 34.036 34.036 0 0 0 60.501 73.5 A 28.272 28.272 0 0 0 60.504 73.936 A 24.553 24.553 0 0 0 62.701 83.9 Q 64.901 88.7 69.151 91.6 A 16.069 16.069 0 0 0 74.323 93.905 A 20.705 20.705 0 0 0 79.401 94.5 A 18.053 18.053 0 0 0 85.952 93.306 A 19.822 19.822 0 0 0 92.101 89.45 A 22.918 22.918 0 0 0 97.007 83.139 A 28.513 28.513 0 0 0 99.601 76 A 52.306 52.306 0 0 0 104.01 75.634 A 42.89 42.89 0 0 0 112.801 73.6 A 3.589 3.589 0 0 0 115.053 71.566 Q 115.692 70.189 115.701 67.966 A 15.748 15.748 0 0 0 115.701 67.9 A 10.564 10.564 0 0 0 115.685 67.316 Q 115.645 66.59 115.502 65.966 A 5.429 5.429 0 0 0 115.001 64.6 A 3.16 3.16 0 0 0 114.66 64.086 Z M 211.26 64.086 A 2.055 2.055 0 0 0 209.601 63.3 A 4.008 4.008 0 0 0 209.334 63.309 Q 208.829 63.343 208.201 63.5 A 89.607 89.607 0 0 1 205.194 64.234 Q 200.577 65.272 197.001 65.5 A 27.657 27.657 0 0 0 196.654 63.139 A 21.86 21.86 0 0 0 191.551 52.55 A 14.981 14.981 0 0 0 185.139 48.217 A 17.814 17.814 0 0 0 179.301 47.3 Q 173.101 47.3 168.001 50.65 A 21.614 21.614 0 0 0 164.352 53.664 A 24.072 24.072 0 0 0 160.001 59.95 A 27.572 27.572 0 0 0 157.907 65.943 A 34.036 34.036 0 0 0 157.101 73.5 A 28.272 28.272 0 0 0 157.104 73.936 A 24.553 24.553 0 0 0 159.301 83.9 Q 161.501 88.7 165.751 91.6 A 16.069 16.069 0 0 0 170.923 93.905 A 20.705 20.705 0 0 0 176.001 94.5 A 18.053 18.053 0 0 0 182.552 93.306 A 19.822 19.822 0 0 0 188.701 89.45 A 22.918 22.918 0 0 0 193.607 83.139 A 28.513 28.513 0 0 0 196.201 76 A 52.306 52.306 0 0 0 200.61 75.634 A 42.89 42.89 0 0 0 209.401 73.6 A 3.589 3.589 0 0 0 211.653 71.566 Q 212.292 70.189 212.301 67.966 A 15.748 15.748 0 0 0 212.301 67.9 A 10.564 10.564 0 0 0 212.285 67.316 Q 212.245 66.59 212.102 65.966 A 5.429 5.429 0 0 0 211.601 64.6 A 3.16 3.16 0 0 0 211.26 64.086 Z M 152.101 9.8 A 1.501 1.501 0 0 0 151.077 10.291 Q 150.02 11.303 148.963 14.404 A 41.745 41.745 0 0 0 148.301 16.55 Q 146.401 23.3 145.051 34.2 Q 143.701 45.1 143.101 57 A 187.855 187.855 0 0 0 148.515 44.035 Q 153.335 31.042 154.14 21.491 A 43.99 43.99 0 0 0 154.301 17.8 Q 154.301 14 153.651 11.9 A 8.693 8.693 0 0 0 153.398 11.187 Q 152.905 9.978 152.285 9.823 A 0.758 0.758 0 0 0 152.101 9.8 Z M 82.801 57.9 L 82.301 57.9 A 7.373 7.373 0 0 0 76.783 60.345 A 11.395 11.395 0 0 0 75.651 61.75 A 13.286 13.286 0 0 0 73.911 65.479 Q 73.001 68.499 73.001 72.6 A 22.559 22.559 0 0 0 73.206 75.747 Q 73.664 78.995 75.151 81 A 8.845 8.845 0 0 0 76.568 82.529 A 5.53 5.53 0 0 0 80.201 83.9 A 7.088 7.088 0 0 0 85.227 81.838 A 9.727 9.727 0 0 0 85.751 81.3 A 10.806 10.806 0 0 0 87.537 78.528 Q 88.112 77.272 88.501 75.739 A 22.846 22.846 0 0 0 88.901 73.8 Q 85.801 71.7 84.151 68.3 Q 82.501 64.9 82.501 61.1 Q 82.501 59.5 82.801 57.9 Z M 179.401 57.9 L 178.901 57.9 A 7.373 7.373 0 0 0 173.383 60.345 A 11.395 11.395 0 0 0 172.251 61.75 A 13.286 13.286 0 0 0 170.511 65.479 Q 169.601 68.499 169.601 72.6 A 22.559 22.559 0 0 0 169.806 75.747 Q 170.264 78.995 171.751 81 A 8.845 8.845 0 0 0 173.168 82.529 A 5.53 5.53 0 0 0 176.801 83.9 A 7.088 7.088 0 0 0 181.827 81.838 A 9.727 9.727 0 0 0 182.351 81.3 A 10.806 10.806 0 0 0 184.137 78.528 Q 184.712 77.272 185.101 75.739 A 22.846 22.846 0 0 0 185.501 73.8 Q 182.401 71.7 180.751 68.3 Q 179.101 64.9 179.101 61.1 Q 179.101 59.5 179.401 57.9 Z M 123.301 84.4 A 5.087 5.087 0 0 0 125.439 83.91 Q 126.14 83.588 126.841 83.055 A 9.612 9.612 0 0 0 127.101 82.85 A 12.592 12.592 0 0 0 128.245 81.773 Q 129.415 80.542 130.875 78.547 A 65.559 65.559 0 0 0 131.901 77.1 Q 130.901 71.7 130.901 65 Q 130.901 62.6 131.101 57.2 A 15.62 15.62 0 0 0 124.085 61.756 A 21.405 21.405 0 0 0 121.951 64.55 Q 118.301 70.2 118.301 77.1 A 15.776 15.776 0 0 0 118.492 79.673 Q 119.25 84.236 123.025 84.394 A 6.571 6.571 0 0 0 123.301 84.4 Z" vector-effect="non-scaling-stroke"/></g></svg>
