<svg width="106.151" height="47.251" viewBox="0 0 106.151 47.251" xmlns="http://www.w3.org/2000/svg"><g id="svgGroup" stroke-linecap="round" fill-rule="evenodd" font-size="9pt" stroke="#fb76a0" stroke-width="0.25mm" fill="#fb76a0" style="stroke:#fb76a0;stroke-width:0.25mm;fill:#fb76a0"><path d="M 52.005 37.817 A 21.445 21.445 0 0 0 52.946 37.68 A 16.469 16.469 0 0 0 52.901 39.05 A 11.266 11.266 0 0 0 53.123 41.347 A 7.872 7.872 0 0 0 54.876 44.975 A 6.541 6.541 0 0 0 57.08 46.663 A 6.652 6.652 0 0 0 59.901 47.25 A 8.768 8.768 0 0 0 61.162 47.162 A 6.781 6.781 0 0 0 63.576 46.35 Q 64.708 45.703 66.111 44.152 A 27.183 27.183 0 0 0 67.251 42.8 A 13.484 13.484 0 0 0 67.322 42.957 Q 67.866 44.126 68.537 44.976 A 5.527 5.527 0 0 0 73.051 47.25 A 6.519 6.519 0 0 0 73.467 47.237 Q 75.663 47.096 77.901 45.475 A 22.448 22.448 0 0 0 78.582 44.962 A 24.468 24.468 0 0 0 80.429 43.347 A 9.21 9.21 0 0 0 82.876 45.8 A 8.035 8.035 0 0 0 85.461 46.952 A 10.353 10.353 0 0 0 88.001 47.25 A 9.026 9.026 0 0 0 91.276 46.653 A 9.911 9.911 0 0 0 94.351 44.725 A 11.459 11.459 0 0 0 96.803 41.57 A 14.256 14.256 0 0 0 98.101 38 Q 101.701 37.85 104.701 36.8 Q 106.151 36.35 106.151 33.95 A 5.282 5.282 0 0 0 106.143 33.658 Q 106.123 33.295 106.051 32.983 A 2.714 2.714 0 0 0 105.801 32.3 A 1.58 1.58 0 0 0 105.63 32.043 A 1.027 1.027 0 0 0 104.801 31.65 Q 104.613 31.65 104.386 31.689 A 3.947 3.947 0 0 0 104.101 31.75 A 44.803 44.803 0 0 1 102.597 32.117 Q 101.426 32.38 100.39 32.539 A 21.544 21.544 0 0 1 98.501 32.75 A 13.829 13.829 0 0 0 98.327 31.57 A 10.93 10.93 0 0 0 95.776 26.275 A 7.491 7.491 0 0 0 92.569 24.109 A 8.907 8.907 0 0 0 89.651 23.65 Q 86.551 23.65 84.001 25.325 Q 81.451 27 80.001 29.975 A 13.786 13.786 0 0 0 78.954 32.972 A 17.018 17.018 0 0 0 78.551 36.75 A 14.138 14.138 0 0 0 78.552 36.968 A 12.277 12.277 0 0 0 78.693 38.73 A 53.542 53.542 0 0 1 78.681 38.743 Q 77.622 39.889 76.851 40.55 A 6.989 6.989 0 0 1 76.421 40.891 Q 75.243 41.75 74.101 41.75 A 1.58 1.58 0 0 1 73.328 41.554 Q 73.023 41.387 72.761 41.076 A 3.382 3.382 0 0 1 72.376 40.5 A 4.357 4.357 0 0 1 72.121 39.926 Q 71.805 39.058 71.63 37.697 A 23.187 23.187 0 0 1 71.501 36.35 A 110.603 110.603 0 0 0 74.69 30.481 A 90.191 90.191 0 0 0 78.851 20.95 A 58.987 58.987 0 0 0 79.939 17.704 Q 81.601 12.203 81.601 7.85 A 21.575 21.575 0 0 0 81.6 7.697 Q 81.583 5.329 81.044 3.694 A 6.253 6.253 0 0 0 80.176 1.95 A 6.09 6.09 0 0 0 79.754 1.434 A 4.123 4.123 0 0 0 76.601 0 A 5.126 5.126 0 0 0 74.908 0.282 Q 72.586 1.088 70.826 4.196 A 20.62 20.62 0 0 0 69.576 6.875 Q 68.029 10.85 67.059 15.769 A 80.147 80.147 0 0 0 65.951 23.45 Q 62.251 23.85 59.276 26.025 Q 56.301 28.2 54.601 31.625 A 16.469 16.469 0 0 0 54.376 32.099 A 44.803 44.803 0 0 1 54.297 32.117 Q 53.126 32.38 52.09 32.539 A 21.544 21.544 0 0 1 50.201 32.75 A 13.829 13.829 0 0 0 50.027 31.57 A 10.93 10.93 0 0 0 47.476 26.275 A 7.491 7.491 0 0 0 44.269 24.109 A 8.907 8.907 0 0 0 41.351 23.65 Q 38.251 23.65 35.701 25.325 Q 33.151 27 31.701 29.975 A 13.786 13.786 0 0 0 30.654 32.972 A 17.018 17.018 0 0 0 30.251 36.75 A 14.138 14.138 0 0 0 30.252 36.968 A 12.277 12.277 0 0 0 31.351 41.95 Q 32.451 44.35 34.576 45.8 A 8.035 8.035 0 0 0 37.161 46.952 A 10.353 10.353 0 0 0 39.701 47.25 A 9.026 9.026 0 0 0 42.976 46.653 A 9.911 9.911 0 0 0 46.051 44.725 A 11.459 11.459 0 0 0 48.503 41.57 A 14.256 14.256 0 0 0 49.801 38 A 26.153 26.153 0 0 0 52.005 37.817 Z M 41.234 5.745 A 6.847 6.847 0 0 0 40.301 5.5 A 33.512 33.512 0 0 0 39.595 5.378 Q 38.513 5.203 37.283 5.073 A 60.818 60.818 0 0 0 34.576 4.85 Q 31.301 4.65 25.801 4.65 A 110.341 110.341 0 0 0 20.43 4.773 Q 17.91 4.896 15.721 5.143 A 47.472 47.472 0 0 0 11.226 5.85 A 28.852 28.852 0 0 0 8.359 6.603 Q 4.797 7.749 2.776 9.625 A 8.32 8.32 0 0 0 0.441 13.329 A 10.541 10.541 0 0 0 0.001 16.45 Q 0.001 18.45 0.651 20.025 Q 1.301 21.6 2.301 22.45 A 1.85 1.85 0 0 0 3.042 22.863 A 2.367 2.367 0 0 0 3.701 22.95 A 3.536 3.536 0 0 0 5.027 22.689 A 4.564 4.564 0 0 0 6.026 22.125 Q 7.151 21.3 7.151 20.35 Q 7.151 19.95 6.951 19.6 Q 5.951 18.05 5.951 16.35 Q 5.951 14.5 7.126 13.325 Q 8.301 12.15 11.101 11.5 A 18.468 18.468 0 0 1 11.518 11.408 Q 13.333 11.031 15.943 10.843 A 69.301 69.301 0 0 1 18.801 10.7 Q 18.551 11.9 18.351 12.875 Q 18.151 13.85 18.001 14.6 Q 17.301 17.95 16.601 21.7 Q 15.901 25.45 15.351 29.25 A 85.572 85.572 0 0 1 15.139 30.734 Q 14.879 32.453 14.501 34.55 A 225.492 225.492 0 0 0 14.032 37.531 A 194.472 194.472 0 0 0 13.626 40.375 A 78.19 78.19 0 0 0 13.464 41.646 Q 13.321 42.849 13.274 43.652 A 12.076 12.076 0 0 0 13.251 44.35 A 3.593 3.593 0 0 0 13.256 44.55 A 2.634 2.634 0 0 0 14.151 46.45 A 2.743 2.743 0 0 0 14.698 46.827 Q 15.139 47.06 15.7 47.164 A 5.46 5.46 0 0 0 16.701 47.25 A 5.551 5.551 0 0 0 17.498 47.195 A 4.217 4.217 0 0 0 19.351 46.475 A 2.709 2.709 0 0 0 20.312 45.298 A 3.255 3.255 0 0 0 20.551 44.25 A 61.283 61.283 0 0 1 20.597 43.651 Q 20.814 41.028 21.351 37.025 Q 21.688 34.508 22.01 32.331 A 236.024 236.024 0 0 1 22.501 29.15 Q 24.051 19.85 25.901 10.65 Q 28.976 10.688 31.165 10.767 A 104.562 104.562 0 0 1 32.526 10.825 Q 34.419 10.919 37.424 11.139 A 482.697 482.697 0 0 1 39.551 11.3 A 9.333 9.333 0 0 0 39.796 11.315 Q 41.608 11.403 42.476 10.7 Q 43.128 10.171 43.32 9.195 A 4.637 4.637 0 0 0 43.401 8.3 Q 43.401 7.3 42.626 6.55 A 3.071 3.071 0 0 0 42.06 6.122 Q 41.697 5.905 41.234 5.745 Z M 76.051 4.9 A 0.751 0.751 0 0 0 75.538 5.145 Q 75.01 5.651 74.481 7.202 A 20.873 20.873 0 0 0 74.151 8.275 A 38.973 38.973 0 0 0 73.53 10.841 Q 73.249 12.182 72.998 13.747 A 94.685 94.685 0 0 0 72.526 17.1 A 152.508 152.508 0 0 0 71.724 25.556 A 172.294 172.294 0 0 0 71.551 28.5 A 93.927 93.927 0 0 0 74.258 22.017 Q 76.667 15.521 77.07 10.746 A 21.995 21.995 0 0 0 77.151 8.9 Q 77.151 7.139 76.871 6.109 A 4.618 4.618 0 0 0 76.826 5.95 A 4.347 4.347 0 0 0 76.699 5.593 Q 76.452 4.989 76.143 4.911 A 0.379 0.379 0 0 0 76.051 4.9 Z M 41.401 28.95 L 41.151 28.95 A 3.686 3.686 0 0 0 38.392 30.172 A 5.697 5.697 0 0 0 37.826 30.875 A 6.643 6.643 0 0 0 36.955 32.739 Q 36.501 34.249 36.501 36.3 A 11.28 11.28 0 0 0 36.603 37.874 Q 36.832 39.498 37.576 40.5 A 4.423 4.423 0 0 0 38.284 41.265 A 2.765 2.765 0 0 0 40.101 41.95 A 3.544 3.544 0 0 0 42.613 40.919 A 4.863 4.863 0 0 0 42.876 40.65 Q 44.051 39.35 44.451 36.9 Q 42.901 35.85 42.076 34.15 Q 41.251 32.45 41.251 30.55 Q 41.251 29.75 41.401 28.95 Z M 89.701 28.95 L 89.451 28.95 A 3.686 3.686 0 0 0 86.692 30.172 A 5.697 5.697 0 0 0 86.126 30.875 A 6.643 6.643 0 0 0 85.255 32.739 Q 84.801 34.249 84.801 36.3 A 11.28 11.28 0 0 0 84.903 37.874 Q 85.132 39.498 85.876 40.5 A 4.423 4.423 0 0 0 86.584 41.265 A 2.765 2.765 0 0 0 88.401 41.95 A 3.544 3.544 0 0 0 90.913 40.919 A 4.863 4.863 0 0 0 91.176 40.65 Q 92.351 39.35 92.751 36.9 Q 91.201 35.85 90.376 34.15 Q 89.551 32.45 89.551 30.55 Q 89.551 29.75 89.701 28.95 Z M 61.651 42.2 A 2.544 2.544 0 0 0 62.719 41.955 Q 63.07 41.794 63.421 41.527 A 4.806 4.806 0 0 0 63.551 41.425 A 6.296 6.296 0 0 0 64.122 40.887 Q 64.907 40.062 65.951 38.55 Q 65.451 35.85 65.451 32.5 Q 65.451 31.3 65.551 28.6 A 7.81 7.81 0 0 0 62.043 30.878 A 10.703 10.703 0 0 0 60.976 32.275 Q 59.151 35.1 59.151 38.55 Q 59.151 42.098 61.512 42.197 A 3.285 3.285 0 0 0 61.651 42.2 Z" vector-effect="non-scaling-stroke"/></g></svg>
